#!OML:ASF F:\VICON\USERDATA\INSTALL\rory3\rory3.ASF
:FULLY-SPECIFIED
:DEGREES
985
root 5.34595 18.7155 -1.76412 -9.22469 -23.0715 -0.631691
lowerback 16.306 2.16241 -6.52314
upperback 5.24378 1.64653 -1.78593
thorax -3.65929 0.776829 1.48485
lowerneck -3.02732 -6.9627 -9.6145
upperneck 1.32233 -9.32412 12.6803
head 1.95065 -4.54417 5.06425
rclavicle -6.30147e-014 -3.18055e-015
rhumerus -24.7857 25.9105 -91.8642
rradius 62.2725
rwrist 33.8397
rhand -13.0436 -6.115
rfingers 7.12502
rthumb 13.0511 -35.6867
lclavicle -6.30147e-014 -3.18055e-015
lhumerus -45.6624 -19.6549 90.3091
lradius 108.684
lwrist -1.5428
lhand -6.21219 34.5875
lfingers 7.12502
lthumb 19.6284 63.6166
rfemur -47.958 3.91844 2.26413
rtibia 43.7999
rfoot 2.12988 -17.717
rtoes -2.1886
lfemur -0.889524 -2.68513 -17.885
ltibia 25.3191
lfoot -15.1237 13.4605
ltoes 6.71431
986
root 5.34221 18.7222 -1.78727 -8.97577 -23.2712 -0.585777
lowerback 16.2079 2.12014 -6.47072
upperback 5.23063 1.60751 -1.78186
thorax -3.61735 0.756974 1.46972
lowerneck -3.26373 -6.93735 -9.50045
upperneck 1.56591 -9.29216 12.5584
head 2.04579 -4.51784 4.99842
rclavicle 9.14409e-015 -6.36111e-015
rhumerus -24.4974 26.2783 -91.6336
rradius 62.8453
rwrist 34.1831
rhand -13.4301 -6.77779
rfingers 7.12502
rthumb 12.6786 -36.3729
lclavicle 9.14409e-015 -6.36111e-015
lhumerus -45.432 -19.0686 89.8783
lradius 108.148
lwrist -3.18556
lhand -3.89588 34.8256
lfingers 7.12502
lthumb 21.8539 63.6116
rfemur -48.0921 3.79466 2.43837
rtibia 44.2463
rfoot 2.05568 -17.7584
rtoes -1.7345
lfemur -1.24748 -2.64806 -17.8705
ltibia 25.4141
lfoot -15.1892 13.6872
ltoes 6.86743
987
root 5.33572 18.7263 -1.80973 -8.77947 -23.4551 -0.481097
lowerback 16.1801 2.10922 -6.45542
upperback 5.19872 1.59756 -1.76001
thorax -3.6361 0.753163 1.48634
lowerneck -3.36231 -6.93921 -9.5347
upperneck 1.68047 -9.29078 12.4715
head 2.09255 -4.5136 4.97224
rclavicle -1.98785e-015 -3.18055e-015
rhumerus -24.2234 26.6224 -91.3824
rradius 63.2285
rwrist 34.6261
rhand -14.4321 -6.84226
rfingers 7.12502
rthumb 11.7124 -36.4948
lclavicle -1.98785e-015 -3.18055e-015
lhumerus -45.453 -19.1049 90.1078
lradius 107.751
lwrist -3.08371
lhand -4.76668 34.7908
lfingers 7.12502
lthumb 21.0176 63.6719
rfemur -48.1734 3.62856 2.57987
rtibia 44.7253
rfoot 2.06606 -17.7498
rtoes -1.36494
lfemur -1.59663 -2.61647 -17.9129
ltibia 25.5632
lfoot -15.244 13.8557
ltoes 7.05792
988
root 5.33318 18.7197 -1.85806 -8.78014 -22.9191 -0.691115
lowerback 17.1062 1.89711 -6.15516
upperback 5.08463 1.29097 -1.64432
thorax -4.22618 0.618105 1.4792
lowerneck -3.20445 -6.94326 -9.63989
upperneck 1.67866 -9.30013 12.424
head 2.06939 -4.52469 4.97969
rclavicle -1.17283e-014 -1.82882e-014
rhumerus -24.2495 26.8233 -91.1821
rradius 63.8082
rwrist 35.2803
rhand -15.5629 -6.32309
rfingers 7.12502
rthumb 10.6218 -36.0346
lclavicle -1.17283e-014 -1.82882e-014
lhumerus -45.3785 -18.992 90.1448
lradius 107.262
lwrist -4.21027
lhand -3.48975 34.751
lfingers 7.12502
lthumb 22.2439 63.4909
rfemur -47.7184 2.96727 2.90672
rtibia 45.2598
rfoot 2.06192 -17.8727
rtoes -1.49206
lfemur -1.82461 -3.29443 -17.7595
ltibia 25.691
lfoot -15.1594 13.8641
ltoes 7.29552
989
root 5.32123 18.7142 -1.88791 -8.56376 -22.7846 -0.615904
lowerback 17.2787 1.84969 -6.16436
upperback 4.97685 1.21147 -1.60572
thorax -4.42836 0.586342 1.53701
lowerneck -2.99178 -6.94387 -9.70183
upperneck 1.55226 -9.30541 12.4644
head 2.0028 -4.53578 5.01118
rclavicle -2.06736e-014 -1.74931e-014
rhumerus -24.4678 26.8754 -91.0033
rradius 64.5877
rwrist 36.1299
rhand -16.8858 -5.83305
rfingers 7.12502
rthumb 9.34554 -35.6059
lclavicle -2.06736e-014 -1.74931e-014
lhumerus -45.1895 -18.927 90.1064
lradius 106.756
lwrist -5.59722
lhand -2.27581 34.6463
lfingers 7.12502
lthumb 23.4088 63.2426
rfemur -47.752 2.46887 3.08158
rtibia 45.8761
rfoot 2.18807 -17.8605
rtoes -2.07087
lfemur -2.27158 -3.43913 -17.7676
ltibia 25.8089
lfoot -15.1102 13.8114
ltoes 7.39767
990
root 5.3078 18.7118 -1.9005 -8.36506 -22.8286 -0.395164
lowerback 17.0393 1.84067 -6.21294
upperback 4.99976 1.21018 -1.64755
thorax -4.2763 0.582067 1.52518
lowerneck -2.95203 -6.92868 -9.64798
upperneck 1.3668 -9.27546 12.4844
head 1.93711 -4.52418 5.01473
rclavicle -1.35174e-014 2.38542e-015
rhumerus -24.5693 26.9796 -90.8338
rradius 65.3259
rwrist 36.7557
rhand -18.6754 -5.42001
rfingers 7.12502
rthumb 7.61848 -35.2628
lclavicle -1.35174e-014 2.38542e-015
lhumerus -44.8221 -18.9689 90.0159
lradius 106.27
lwrist -6.57477
lhand -1.71925 34.381
lfingers 7.12502
lthumb 23.9426 62.9081
rfemur -47.8141 2.12088 3.12775
rtibia 46.5351
rfoot 2.20884 -17.8297
rtoes -2.87588
lfemur -2.64671 -3.43346 -17.9176
ltibia 25.9325
lfoot -15.1739 13.8828
ltoes 7.51204
991
root 5.29327 18.7099 -1.91056 -8.17523 -22.8523 -0.228829
lowerback 16.7674 1.81699 -6.14131
upperback 5.0739 1.21502 -1.68545
thorax -4.05105 0.577801 1.45012
lowerneck -3.00718 -6.94735 -9.62736
upperneck 1.15528 -9.28034 12.5007
head 1.88472 -4.52742 5.0175
rclavicle 5.22804e-014 1.74931e-014
rhumerus -24.6437 27.0845 -90.6403
rradius 65.9789
rwrist 37.1872
rhand -20.8669 -5.18195
rfingers 7.12502
rthumb 5.50289 -35.0905
lclavicle 5.22804e-014 1.74931e-014
lhumerus -44.3164 -19.049 89.9342
lradius 105.775
lwrist -7.58659
lhand -0.932175 34.3374
lfingers 7.12502
lthumb 24.6972 62.7634
rfemur -47.7853 1.84774 3.16563
rtibia 47.2313
rfoot 2.06666 -17.8368
rtoes -3.19137
lfemur -2.94364 -3.53659 -18.0303
ltibia 25.9751
lfoot -15.2262 14.0629
ltoes 7.62588
992
root 5.27594 18.7115 -1.92354 -7.86792 -22.9013 -0.320477
lowerback 16.6272 1.78815 -5.92225
upperback 5.05677 1.22894 -1.61
thorax -3.99418 0.583928 1.40655
lowerneck -3.06701 -6.94676 -9.70509
upperneck 1.09672 -9.26721 12.5173
head 1.88045 -4.51975 5.03452
rclavicle -1.45113e-014 7.95139e-016
rhumerus -24.9954 27.2193 -90.5369
rradius 66.6694
rwrist 37.3481
rhand -22.9111 -5.10385
rfingers 7.12502
rthumb 3.52895 -35.0544
lclavicle -1.45113e-014 7.95139e-016
lhumerus -43.8856 -19.057 89.9965
lradius 105.301
lwrist -8.76286
lhand 0.234848 34.7796
lfingers 7.12502
lthumb 25.8153 63.0479
rfemur -47.7404 1.67876 3.47665
rtibia 47.9318
rfoot 1.93812 -17.882
rtoes -2.97672
lfemur -3.28916 -3.55143 -17.8275
ltibia 26.0347
lfoot -15.2217 14.1051
ltoes 7.91112
993
root 5.25553 18.7126 -1.92767 -7.67569 -22.9911 -0.45164
lowerback 16.478 1.78393 -5.64701
upperback 5.11813 1.287 -1.52527
thorax -3.85093 0.608177 1.33363
lowerneck -3.09972 -6.95537 -9.77023
upperneck 1.02016 -9.26693 12.5197
head 1.86654 -4.51972 5.0457
rclavicle -2.5842e-015 2.8625e-014
rhumerus -25.3778 27.316 -90.4629
rradius 67.2904
rwrist 37.1375
rhand -24.4526 -5.32782
rfingers 7.12502
rthumb 2.04025 -35.2978
lclavicle -2.5842e-015 2.8625e-014
lhumerus -43.4241 -19.2018 90.0833
lradius 104.89
lwrist -9.90966
lhand 1.1344 35.281
lfingers 7.12502
lthumb 26.6765 63.4211
rfemur -47.518 1.52842 3.89947
rtibia 48.6241
rfoot 2.03464 -17.8342
rtoes -3.45457
lfemur -3.4658 -3.35692 -17.5499
ltibia 26.1214
lfoot -15.1776 13.9915
ltoes 7.82444
994
root 5.23435 18.7047 -1.94495 -7.45929 -22.639 -0.429142
lowerback 16.463 1.67963 -5.51119
upperback 5.14191 1.1772 -1.48871
thorax -3.80942 0.553248 1.3182
lowerneck -3.19958 -7.02074 -9.80411
upperneck 0.930899 -9.33978 12.5491
head 1.86819 -4.55363 5.05369
rclavicle 7.99114e-014 -3.97569e-014
rhumerus -25.745 27.4263 -90.3779
rradius 67.7163
rwrist 36.751
rhand -25.7131 -5.38027
rfingers 7.12502
rthumb 0.822889 -35.3584
lclavicle 7.99114e-014 -3.97569e-014
lhumerus -42.9374 -19.4417 90.1646
lradius 104.545
lwrist -11.0246
lhand 1.67626 35.3547
lfingers 7.12502
lthumb 27.1949 63.4148
rfemur -47.2577 1.11731 3.98991
rtibia 49.3421
rfoot 2.14729 -17.8753
rtoes -3.91332
lfemur -3.8886 -3.49959 -17.4836
ltibia 26.2593
lfoot -15.0083 13.824
ltoes 7.69993
995
root 5.20937 18.7006 -1.95623 -7.34731 -22.5698 -0.412631
lowerback 16.4504 1.66304 -5.36594
upperback 5.17065 1.18208 -1.46851
thorax -3.77088 0.554523 1.25745
lowerneck -3.21179 -7.05487 -9.77604
upperneck 0.808495 -9.37504 12.5291
head 1.83597 -4.57253 5.04266
rclavicle -4.11484e-014 -7.95139e-016
rhumerus -26.1904 27.5721 -90.4374
rradius 67.8569
rwrist 36.339
rhand -27.2882 -4.52909
rfingers 7.12502
rthumb -0.698442 -34.5077
lclavicle -4.11484e-014 -7.95139e-016
lhumerus -42.5614 -19.6768 90.2193
lradius 104.206
lwrist -12.082
lhand 2.10863 35.1576
lfingers 7.12502
lthumb 27.6085 63.1522
rfemur -46.9141 1.05254 4.09239
rtibia 50.0817
rfoot 2.07491 -17.8696
rtoes -3.86389
lfemur -4.11272 -3.51626 -17.4006
ltibia 26.4062
lfoot -15.0962 13.7611
ltoes 7.68201
